<?xml version="1.0" encoding="UTF-8" standalone="no"?>
<!DOCTYPE svg PUBLIC "-//W3C//DTD SVG 1.1//EN"
 "http://www.w3.org/Graphics/SVG/1.1/DTD/svg11.dtd">
<!-- Generated by graphviz version 2.44.1 (20200629.0846)
 -->
<!-- Title: dependencies Pages: 1 -->
<svg width="638pt" height="284pt"
 viewBox="0.00 0.00 638.00 284.00" xmlns="http://www.w3.org/2000/svg" xmlns:xlink="http://www.w3.org/1999/xlink">
<g id="graph0" class="graph" transform="scale(1 1) rotate(0) translate(4 280)">
<title>dependencies</title>
<polygon fill="white" stroke="transparent" points="-4,4 -4,-280 634,-280 634,4 -4,4"/>
<text text-anchor="start" x="294.01" y="-42.4" font-family="sans-serif" font-weight="bold" font-size="14.00">Legend</text>
<polygon fill="#ffffb3" stroke="transparent" points="81,-10 81,-30 101,-30 101,-10 81,-10"/>
<text text-anchor="start" x="104.63" y="-15.4" font-family="sans-serif" font-size="14.00"> &#160;Declarations</text>
<polygon fill="#8dd3c7" stroke="transparent" points="194,-10 194,-30 214,-30 214,-10 194,-10"/>
<text text-anchor="start" x="217.73" y="-15.4" font-family="sans-serif" font-size="14.00"> &#160;Module</text>
<polygon fill="#80b1d3" stroke="transparent" points="280,-10 280,-30 300,-30 300,-10 280,-10"/>
<text text-anchor="start" x="303.78" y="-15.4" font-family="sans-serif" font-size="14.00"> &#160;Bootstrap</text>
<polygon fill="#fdb462" stroke="transparent" points="377,-10 377,-30 397,-30 397,-10 377,-10"/>
<text text-anchor="start" x="400.67" y="-15.4" font-family="sans-serif" font-size="14.00"> &#160;Providers</text>
<polygon fill="#fb8072" stroke="transparent" points="473,-10 473,-30 493,-30 493,-10 473,-10"/>
<text text-anchor="start" x="496.73" y="-15.4" font-family="sans-serif" font-size="14.00"> &#160;Exports</text>
<g id="clust1" class="cluster">
<title>cluster_SimpleNotificationsModule</title>
<polygon fill="none" stroke="black" stroke-dasharray="1,5" points="8,-70 8,-268 622,-268 622,-70 8,-70"/>
</g>
<g id="clust6" class="cluster">
<title>cluster_SimpleNotificationsModule_imports</title>
<polygon fill="none" stroke="black" points="486,-78 486,-130 614,-130 614,-78 486,-78"/>
</g>
<g id="clust7" class="cluster">
<title>cluster_SimpleNotificationsModule_exports</title>
<polygon fill="none" stroke="black" points="171,-208 171,-260 385,-260 385,-208 171,-208"/>
</g>
<g id="clust2" class="cluster">
<title>cluster_SimpleNotificationsModule_declarations</title>
<polygon fill="none" stroke="black" points="16,-78 16,-130 478,-130 478,-78 16,-78"/>
</g>
<!-- SimpleNotificationsComponent -->
<g id="node1" class="node">
<title>SimpleNotificationsComponent</title>
<polygon fill="#ffffb3" stroke="black" points="470.1,-122 275.9,-122 275.9,-86 470.1,-86 470.1,-122"/>
<text text-anchor="middle" x="373" y="-99.8" font-family="Times,serif" font-size="14.00">SimpleNotificationsComponent</text>
</g>
<!-- SimpleNotificationsModule -->
<g id="node4" class="node">
<title>SimpleNotificationsModule</title>
<polygon fill="#8dd3c7" stroke="black" points="364.31,-187 361.31,-191 340.31,-191 337.31,-187 191.69,-187 191.69,-151 364.31,-151 364.31,-187"/>
<text text-anchor="middle" x="278" y="-164.8" font-family="Times,serif" font-size="14.00">SimpleNotificationsModule</text>
</g>
<!-- SimpleNotificationsComponent&#45;&gt;SimpleNotificationsModule -->
<g id="edge1" class="edge">
<title>SimpleNotificationsComponent&#45;&gt;SimpleNotificationsModule</title>
<path fill="none" stroke="black" d="M320.05,-122.11C320.05,-122.11 320.05,-140.99 320.05,-140.99"/>
<polygon fill="black" stroke="black" points="316.55,-140.99 320.05,-150.99 323.55,-140.99 316.55,-140.99"/>
</g>
<!-- NotificationComponent -->
<g id="node2" class="node">
<title>NotificationComponent</title>
<polygon fill="#ffffb3" stroke="black" points="257.48,-122 108.52,-122 108.52,-86 257.48,-86 257.48,-122"/>
<text text-anchor="middle" x="183" y="-99.8" font-family="Times,serif" font-size="14.00">NotificationComponent</text>
</g>
<!-- NotificationComponent&#45;&gt;SimpleNotificationsModule -->
<g id="edge2" class="edge">
<title>NotificationComponent&#45;&gt;SimpleNotificationsModule</title>
<path fill="none" stroke="black" d="M224.67,-122.11C224.67,-122.11 224.67,-140.99 224.67,-140.99"/>
<polygon fill="black" stroke="black" points="221.17,-140.99 224.67,-150.99 228.17,-140.99 221.17,-140.99"/>
</g>
<!-- MaxPipe -->
<g id="node3" class="node">
<title>MaxPipe</title>
<polygon fill="#ffffb3" stroke="black" points="90.05,-122 23.95,-122 23.95,-86 90.05,-86 90.05,-122"/>
<text text-anchor="middle" x="57" y="-99.8" font-family="Times,serif" font-size="14.00">MaxPipe</text>
</g>
<!-- MaxPipe&#45;&gt;SimpleNotificationsModule -->
<g id="edge3" class="edge">
<title>MaxPipe&#45;&gt;SimpleNotificationsModule</title>
<path fill="none" stroke="black" d="M57,-122.11C57,-141.34 57,-169 57,-169 57,-169 181.61,-169 181.61,-169"/>
<polygon fill="black" stroke="black" points="181.61,-172.5 191.61,-169 181.61,-165.5 181.61,-172.5"/>
</g>
<!-- SimpleNotificationsComponent  -->
<g id="node6" class="node">
<title>SimpleNotificationsComponent </title>
<polygon fill="#fb8072" stroke="black" points="376.6,-252 179.4,-252 179.4,-216 376.6,-216 376.6,-252"/>
<text text-anchor="middle" x="278" y="-229.8" font-family="Times,serif" font-size="14.00">SimpleNotificationsComponent </text>
</g>
<!-- SimpleNotificationsModule&#45;&gt;SimpleNotificationsComponent  -->
<g id="edge5" class="edge">
<title>SimpleNotificationsModule&#45;&gt;SimpleNotificationsComponent </title>
<path fill="none" stroke="black" stroke-dasharray="5,2" d="M278,-187.11C278,-187.11 278,-205.99 278,-205.99"/>
<polygon fill="black" stroke="black" points="274.5,-205.99 278,-215.99 281.5,-205.99 274.5,-205.99"/>
</g>
<!-- CommonModule -->
<g id="node5" class="node">
<title>CommonModule</title>
<polygon fill="#8dd3c7" stroke="black" points="605.67,-122 602.67,-126 581.67,-126 578.67,-122 494.33,-122 494.33,-86 605.67,-86 605.67,-122"/>
<text text-anchor="middle" x="550" y="-99.8" font-family="Times,serif" font-size="14.00">CommonModule</text>
</g>
<!-- CommonModule&#45;&gt;SimpleNotificationsModule -->
<g id="edge4" class="edge">
<title>CommonModule&#45;&gt;SimpleNotificationsModule</title>
<path fill="none" stroke="black" d="M550,-122.11C550,-141.34 550,-169 550,-169 550,-169 374.44,-169 374.44,-169"/>
<polygon fill="black" stroke="black" points="374.44,-165.5 364.44,-169 374.44,-172.5 374.44,-165.5"/>
</g>
</g>
</svg>
