<?xml version="1.0" encoding="UTF-8" standalone="no"?>
<!DOCTYPE svg PUBLIC "-//W3C//DTD SVG 1.1//EN"
 "http://www.w3.org/Graphics/SVG/1.1/DTD/svg11.dtd">
<!-- Generated by graphviz version 2.47.3 (20210619.1520)
 -->
<!-- Title: dependencies Pages: 1 -->
<svg width="638pt" height="247pt"
 viewBox="0.00 0.00 638.00 246.80" xmlns="http://www.w3.org/2000/svg" xmlns:xlink="http://www.w3.org/1999/xlink">
<g id="graph0" class="graph" transform="scale(1 1) rotate(0) translate(4 242.8)">
<title>dependencies</title>
<polygon fill="white" stroke="transparent" points="-4,4 -4,-242.8 634,-242.8 634,4 -4,4"/>
<text text-anchor="middle" x="315" y="-8.2" font-family="sans-serif" font-size="14.00">dependencies</text>
<g id="clust1" class="cluster">
<title>cluster_SimpleNotificationsModule</title>
<polygon fill="none" stroke="black" stroke-dasharray="1,5" points="8,-32.8 8,-230.8 622,-230.8 622,-32.8 8,-32.8"/>
</g>
<g id="clust2" class="cluster">
<title>cluster_SimpleNotificationsModule_declarations</title>
<polygon fill="none" stroke="black" points="152,-40.8 152,-92.8 614,-92.8 614,-40.8 152,-40.8"/>
</g>
<g id="clust6" class="cluster">
<title>cluster_SimpleNotificationsModule_imports</title>
<polygon fill="none" stroke="black" points="16,-40.8 16,-92.8 144,-92.8 144,-40.8 16,-40.8"/>
</g>
<g id="clust7" class="cluster">
<title>cluster_SimpleNotificationsModule_exports</title>
<polygon fill="none" stroke="black" points="149,-170.8 149,-222.8 363,-222.8 363,-170.8 149,-170.8"/>
</g>
<!-- SimpleNotificationsComponent -->
<g id="node1" class="node">
<title>SimpleNotificationsComponent</title>
<polygon fill="#ffffb3" stroke="black" points="606.1,-84.8 411.9,-84.8 411.9,-48.8 606.1,-48.8 606.1,-84.8"/>
<text text-anchor="middle" x="509" y="-62.6" font-family="Times,serif" font-size="14.00">SimpleNotificationsComponent</text>
</g>
<!-- SimpleNotificationsModule -->
<g id="node4" class="node">
<title>SimpleNotificationsModule</title>
<polygon fill="#8dd3c7" stroke="black" points="342.31,-149.8 339.31,-153.8 318.31,-153.8 315.31,-149.8 169.69,-149.8 169.69,-113.8 342.31,-113.8 342.31,-149.8"/>
<text text-anchor="middle" x="256" y="-127.6" font-family="Times,serif" font-size="14.00">SimpleNotificationsModule</text>
</g>
<!-- SimpleNotificationsComponent&#45;&gt;SimpleNotificationsModule -->
<g id="edge1" class="edge">
<title>SimpleNotificationsComponent&#45;&gt;SimpleNotificationsModule</title>
<path fill="none" stroke="black" d="M509,-84.91C509,-104.14 509,-131.8 509,-131.8 509,-131.8 352.36,-131.8 352.36,-131.8"/>
<polygon fill="black" stroke="black" points="352.36,-128.3 342.36,-131.8 352.36,-135.3 352.36,-128.3"/>
</g>
<!-- NotificationComponent -->
<g id="node2" class="node">
<title>NotificationComponent</title>
<polygon fill="#ffffb3" stroke="black" points="393.48,-84.8 244.52,-84.8 244.52,-48.8 393.48,-48.8 393.48,-84.8"/>
<text text-anchor="middle" x="319" y="-62.6" font-family="Times,serif" font-size="14.00">NotificationComponent</text>
</g>
<!-- NotificationComponent&#45;&gt;SimpleNotificationsModule -->
<g id="edge2" class="edge">
<title>NotificationComponent&#45;&gt;SimpleNotificationsModule</title>
<path fill="none" stroke="black" d="M293.33,-84.91C293.33,-84.91 293.33,-103.79 293.33,-103.79"/>
<polygon fill="black" stroke="black" points="289.83,-103.79 293.33,-113.79 296.83,-103.79 289.83,-103.79"/>
</g>
<!-- MaxPipe -->
<g id="node3" class="node">
<title>MaxPipe</title>
<polygon fill="#ffffb3" stroke="black" points="226.05,-84.8 159.95,-84.8 159.95,-48.8 226.05,-48.8 226.05,-84.8"/>
<text text-anchor="middle" x="193" y="-62.6" font-family="Times,serif" font-size="14.00">MaxPipe</text>
</g>
<!-- MaxPipe&#45;&gt;SimpleNotificationsModule -->
<g id="edge3" class="edge">
<title>MaxPipe&#45;&gt;SimpleNotificationsModule</title>
<path fill="none" stroke="black" d="M198.06,-84.91C198.06,-84.91 198.06,-103.79 198.06,-103.79"/>
<polygon fill="black" stroke="black" points="194.56,-103.79 198.06,-113.79 201.56,-103.79 194.56,-103.79"/>
</g>
<!-- SimpleNotificationsComponent  -->
<g id="node6" class="node">
<title>SimpleNotificationsComponent </title>
<polygon fill="#fb8072" stroke="black" points="354.6,-214.8 157.4,-214.8 157.4,-178.8 354.6,-178.8 354.6,-214.8"/>
<text text-anchor="middle" x="256" y="-192.6" font-family="Times,serif" font-size="14.00">SimpleNotificationsComponent </text>
</g>
<!-- SimpleNotificationsModule&#45;&gt;SimpleNotificationsComponent  -->
<g id="edge5" class="edge">
<title>SimpleNotificationsModule&#45;&gt;SimpleNotificationsComponent </title>
<path fill="none" stroke="black" stroke-dasharray="5,2" d="M256,-149.91C256,-149.91 256,-168.79 256,-168.79"/>
<polygon fill="black" stroke="black" points="252.5,-168.79 256,-178.79 259.5,-168.79 252.5,-168.79"/>
</g>
<!-- CommonModule -->
<g id="node5" class="node">
<title>CommonModule</title>
<polygon fill="#8dd3c7" stroke="black" points="135.67,-84.8 132.67,-88.8 111.67,-88.8 108.67,-84.8 24.33,-84.8 24.33,-48.8 135.67,-48.8 135.67,-84.8"/>
<text text-anchor="middle" x="80" y="-62.6" font-family="Times,serif" font-size="14.00">CommonModule</text>
</g>
<!-- CommonModule&#45;&gt;SimpleNotificationsModule -->
<g id="edge4" class="edge">
<title>CommonModule&#45;&gt;SimpleNotificationsModule</title>
<path fill="none" stroke="black" d="M80,-84.91C80,-104.14 80,-131.8 80,-131.8 80,-131.8 159.8,-131.8 159.8,-131.8"/>
<polygon fill="black" stroke="black" points="159.8,-135.3 169.8,-131.8 159.8,-128.3 159.8,-135.3"/>
</g>
</g>
</svg>
