<?xml version="1.0" encoding="UTF-8" standalone="no"?>
<!DOCTYPE svg PUBLIC "-//W3C//DTD SVG 1.1//EN"
 "http://www.w3.org/Graphics/SVG/1.1/DTD/svg11.dtd">
<!-- Generated by graphviz version 5.0.0 (20220707.1540)
 -->
<!-- Title: dependencies Pages: 1 -->
<svg width="638pt" height="247pt"
 viewBox="0.00 0.00 638.00 246.80" xmlns="http://www.w3.org/2000/svg" xmlns:xlink="http://www.w3.org/1999/xlink">
<g id="graph0" class="graph" transform="scale(1 1) rotate(0) translate(4 242.8)">
<title>dependencies</title>
<polygon fill="white" stroke="transparent" points="-4,4 -4,-242.8 634,-242.8 634,4 -4,4"/>
<text text-anchor="middle" x="315" y="-8.2" font-family="sans-serif" font-size="14.00">dependencies</text>
<g id="clust1" class="cluster">
<title>cluster_SimpleNotificationsModule</title>
<polygon fill="none" stroke="black" stroke-dasharray="1,5" points="8,-32.8 8,-230.8 622,-230.8 622,-32.8 8,-32.8"/>
</g>
<g id="clust6" class="cluster">
<title>cluster_SimpleNotificationsModule_imports</title>
<polygon fill="none" stroke="black" points="486,-40.8 486,-92.8 614,-92.8 614,-40.8 486,-40.8"/>
</g>
<g id="clust7" class="cluster">
<title>cluster_SimpleNotificationsModule_exports</title>
<polygon fill="none" stroke="black" points="171,-170.8 171,-222.8 385,-222.8 385,-170.8 171,-170.8"/>
</g>
<g id="clust2" class="cluster">
<title>cluster_SimpleNotificationsModule_declarations</title>
<polygon fill="none" stroke="black" points="16,-40.8 16,-92.8 478,-92.8 478,-40.8 16,-40.8"/>
</g>
<!-- SimpleNotificationsComponent -->
<g id="node1" class="node">
<title>SimpleNotificationsComponent</title>
<polygon fill="#ffffb3" stroke="black" points="470.1,-84.8 275.9,-84.8 275.9,-48.8 470.1,-48.8 470.1,-84.8"/>
<text text-anchor="middle" x="373" y="-62.6" font-family="Times,serif" font-size="14.00">SimpleNotificationsComponent</text>
</g>
<!-- SimpleNotificationsModule -->
<g id="node4" class="node">
<title>SimpleNotificationsModule</title>
<polygon fill="#8dd3c7" stroke="black" points="364.32,-149.8 361.32,-153.8 340.32,-153.8 337.32,-149.8 191.68,-149.8 191.68,-113.8 364.32,-113.8 364.32,-149.8"/>
<text text-anchor="middle" x="278" y="-127.6" font-family="Times,serif" font-size="14.00">SimpleNotificationsModule</text>
</g>
<!-- SimpleNotificationsComponent&#45;&gt;SimpleNotificationsModule -->
<g id="edge1" class="edge">
<title>SimpleNotificationsComponent&#45;&gt;SimpleNotificationsModule</title>
<path fill="none" stroke="black" d="M320.06,-84.91C320.06,-84.91 320.06,-103.79 320.06,-103.79"/>
<polygon fill="black" stroke="black" points="316.56,-103.79 320.06,-113.79 323.56,-103.79 316.56,-103.79"/>
</g>
<!-- NotificationComponent -->
<g id="node2" class="node">
<title>NotificationComponent</title>
<polygon fill="#ffffb3" stroke="black" points="257.48,-84.8 108.52,-84.8 108.52,-48.8 257.48,-48.8 257.48,-84.8"/>
<text text-anchor="middle" x="183" y="-62.6" font-family="Times,serif" font-size="14.00">NotificationComponent</text>
</g>
<!-- NotificationComponent&#45;&gt;SimpleNotificationsModule -->
<g id="edge2" class="edge">
<title>NotificationComponent&#45;&gt;SimpleNotificationsModule</title>
<path fill="none" stroke="black" d="M224.67,-84.91C224.67,-84.91 224.67,-103.79 224.67,-103.79"/>
<polygon fill="black" stroke="black" points="221.17,-103.79 224.67,-113.79 228.17,-103.79 221.17,-103.79"/>
</g>
<!-- MaxPipe -->
<g id="node3" class="node">
<title>MaxPipe</title>
<polygon fill="#ffffb3" stroke="black" points="90.05,-84.8 23.95,-84.8 23.95,-48.8 90.05,-48.8 90.05,-84.8"/>
<text text-anchor="middle" x="57" y="-62.6" font-family="Times,serif" font-size="14.00">MaxPipe</text>
</g>
<!-- MaxPipe&#45;&gt;SimpleNotificationsModule -->
<g id="edge3" class="edge">
<title>MaxPipe&#45;&gt;SimpleNotificationsModule</title>
<path fill="none" stroke="black" d="M57,-84.91C57,-104.14 57,-131.8 57,-131.8 57,-131.8 181.61,-131.8 181.61,-131.8"/>
<polygon fill="black" stroke="black" points="181.61,-135.3 191.61,-131.8 181.61,-128.3 181.61,-135.3"/>
</g>
<!-- SimpleNotificationsComponent  -->
<g id="node6" class="node">
<title>SimpleNotificationsComponent </title>
<polygon fill="#fb8072" stroke="black" points="376.6,-214.8 179.4,-214.8 179.4,-178.8 376.6,-178.8 376.6,-214.8"/>
<text text-anchor="middle" x="278" y="-192.6" font-family="Times,serif" font-size="14.00">SimpleNotificationsComponent </text>
</g>
<!-- SimpleNotificationsModule&#45;&gt;SimpleNotificationsComponent  -->
<g id="edge5" class="edge">
<title>SimpleNotificationsModule&#45;&gt;SimpleNotificationsComponent </title>
<path fill="none" stroke="black" stroke-dasharray="5,2" d="M278,-149.91C278,-149.91 278,-168.79 278,-168.79"/>
<polygon fill="black" stroke="black" points="274.5,-168.79 278,-178.79 281.5,-168.79 274.5,-168.79"/>
</g>
<!-- CommonModule -->
<g id="node5" class="node">
<title>CommonModule</title>
<polygon fill="#8dd3c7" stroke="black" points="605.67,-84.8 602.67,-88.8 581.67,-88.8 578.67,-84.8 494.33,-84.8 494.33,-48.8 605.67,-48.8 605.67,-84.8"/>
<text text-anchor="middle" x="550" y="-62.6" font-family="Times,serif" font-size="14.00">CommonModule</text>
</g>
<!-- CommonModule&#45;&gt;SimpleNotificationsModule -->
<g id="edge4" class="edge">
<title>CommonModule&#45;&gt;SimpleNotificationsModule</title>
<path fill="none" stroke="black" d="M550,-84.91C550,-104.14 550,-131.8 550,-131.8 550,-131.8 374.44,-131.8 374.44,-131.8"/>
<polygon fill="black" stroke="black" points="374.44,-128.3 364.44,-131.8 374.44,-135.3 374.44,-128.3"/>
</g>
</g>
</svg>
