<?xml version="1.0" encoding="UTF-8" standalone="no"?>
<!DOCTYPE svg PUBLIC "-//W3C//DTD SVG 1.1//EN"
 "http://www.w3.org/Graphics/SVG/1.1/DTD/svg11.dtd">
<!-- Generated by graphviz version 2.40.1 (20161225.0304)
 -->
<!-- Title: dependencies Pages: 1 -->
<svg width="638pt" height="284pt"
 viewBox="0.00 0.00 638.00 284.00" xmlns="http://www.w3.org/2000/svg" xmlns:xlink="http://www.w3.org/1999/xlink">
<g id="graph0" class="graph" transform="scale(1 1) rotate(0) translate(4 280)">
<title>dependencies</title>
<polygon fill="#ffffff" stroke="transparent" points="-4,4 -4,-280 634,-280 634,4 -4,4"/>
<text text-anchor="start" x="294.0091" y="-42.4" font-family="sans-serif" font-weight="bold" font-size="14.00" fill="#000000">Legend</text>
<polygon fill="#ffffb3" stroke="transparent" points="81,-10 81,-30 101,-30 101,-10 81,-10"/>
<text text-anchor="start" x="104.629" y="-15.4" font-family="sans-serif" font-size="14.00" fill="#000000"> &#160;Declarations</text>
<polygon fill="#8dd3c7" stroke="transparent" points="194,-10 194,-30 214,-30 214,-10 194,-10"/>
<text text-anchor="start" x="217.7251" y="-15.4" font-family="sans-serif" font-size="14.00" fill="#000000"> &#160;Module</text>
<polygon fill="#80b1d3" stroke="transparent" points="280,-10 280,-30 300,-30 300,-10 280,-10"/>
<text text-anchor="start" x="303.7812" y="-15.4" font-family="sans-serif" font-size="14.00" fill="#000000"> &#160;Bootstrap</text>
<polygon fill="#fdb462" stroke="transparent" points="377,-10 377,-30 397,-30 397,-10 377,-10"/>
<text text-anchor="start" x="400.6732" y="-15.4" font-family="sans-serif" font-size="14.00" fill="#000000"> &#160;Providers</text>
<polygon fill="#fb8072" stroke="transparent" points="473,-10 473,-30 493,-30 493,-10 473,-10"/>
<text text-anchor="start" x="496.7258" y="-15.4" font-family="sans-serif" font-size="14.00" fill="#000000"> &#160;Exports</text>
<g id="clust1" class="cluster">
<title>cluster_SimpleNotificationsModule</title>
<polygon fill="none" stroke="#000000" stroke-dasharray="1,5" points="8,-70 8,-268 622,-268 622,-70 8,-70"/>
</g>
<g id="clust2" class="cluster">
<title>cluster_SimpleNotificationsModule_declarations</title>
<polygon fill="none" stroke="#000000" points="152,-78 152,-130 614,-130 614,-78 152,-78"/>
</g>
<g id="clust6" class="cluster">
<title>cluster_SimpleNotificationsModule_imports</title>
<polygon fill="none" stroke="#000000" points="16,-78 16,-130 144,-130 144,-78 16,-78"/>
</g>
<g id="clust7" class="cluster">
<title>cluster_SimpleNotificationsModule_exports</title>
<polygon fill="none" stroke="#000000" points="149,-208 149,-260 363,-260 363,-208 149,-208"/>
</g>
<!-- SimpleNotificationsComponent -->
<g id="node1" class="node">
<title>SimpleNotificationsComponent</title>
<polygon fill="#ffffb3" stroke="#000000" points="606.0954,-122 411.9046,-122 411.9046,-86 606.0954,-86 606.0954,-122"/>
<text text-anchor="middle" x="509" y="-99.8" font-family="Times,serif" font-size="14.00" fill="#000000">SimpleNotificationsComponent</text>
</g>
<!-- SimpleNotificationsModule -->
<g id="node4" class="node">
<title>SimpleNotificationsModule</title>
<polygon fill="#8dd3c7" stroke="#000000" points="342.3131,-187 339.3131,-191 318.3131,-191 315.3131,-187 169.6869,-187 169.6869,-151 342.3131,-151 342.3131,-187"/>
<text text-anchor="middle" x="256" y="-164.8" font-family="Times,serif" font-size="14.00" fill="#000000">SimpleNotificationsModule</text>
</g>
<!-- SimpleNotificationsComponent&#45;&gt;SimpleNotificationsModule -->
<g id="edge1" class="edge">
<title>SimpleNotificationsComponent&#45;&gt;SimpleNotificationsModule</title>
<path fill="none" stroke="#000000" d="M509,-122.1061C509,-141.3391 509,-169 509,-169 509,-169 352.3606,-169 352.3606,-169"/>
<polygon fill="#000000" stroke="#000000" points="352.3607,-165.5001 342.3606,-169 352.3606,-172.5001 352.3607,-165.5001"/>
</g>
<!-- NotificationComponent -->
<g id="node2" class="node">
<title>NotificationComponent</title>
<polygon fill="#ffffb3" stroke="#000000" points="393.4818,-122 244.5182,-122 244.5182,-86 393.4818,-86 393.4818,-122"/>
<text text-anchor="middle" x="319" y="-99.8" font-family="Times,serif" font-size="14.00" fill="#000000">NotificationComponent</text>
</g>
<!-- NotificationComponent&#45;&gt;SimpleNotificationsModule -->
<g id="edge2" class="edge">
<title>NotificationComponent&#45;&gt;SimpleNotificationsModule</title>
<path fill="none" stroke="#000000" d="M293.3328,-122.1061C293.3328,-122.1061 293.3328,-140.991 293.3328,-140.991"/>
<polygon fill="#000000" stroke="#000000" points="289.8328,-140.9909 293.3328,-150.991 296.8328,-140.991 289.8328,-140.9909"/>
</g>
<!-- MaxPipe -->
<g id="node3" class="node">
<title>MaxPipe</title>
<polygon fill="#ffffb3" stroke="#000000" points="226.0485,-122 159.9515,-122 159.9515,-86 226.0485,-86 226.0485,-122"/>
<text text-anchor="middle" x="193" y="-99.8" font-family="Times,serif" font-size="14.00" fill="#000000">MaxPipe</text>
</g>
<!-- MaxPipe&#45;&gt;SimpleNotificationsModule -->
<g id="edge3" class="edge">
<title>MaxPipe&#45;&gt;SimpleNotificationsModule</title>
<path fill="none" stroke="#000000" d="M198.0586,-122.1061C198.0586,-122.1061 198.0586,-140.991 198.0586,-140.991"/>
<polygon fill="#000000" stroke="#000000" points="194.5586,-140.9909 198.0586,-150.991 201.5586,-140.991 194.5586,-140.9909"/>
</g>
<!-- SimpleNotificationsComponent  -->
<g id="node6" class="node">
<title>SimpleNotificationsComponent </title>
<polygon fill="#fb8072" stroke="#000000" points="354.5958,-252 157.4042,-252 157.4042,-216 354.5958,-216 354.5958,-252"/>
<text text-anchor="middle" x="256" y="-229.8" font-family="Times,serif" font-size="14.00" fill="#000000">SimpleNotificationsComponent </text>
</g>
<!-- SimpleNotificationsModule&#45;&gt;SimpleNotificationsComponent  -->
<g id="edge5" class="edge">
<title>SimpleNotificationsModule&#45;&gt;SimpleNotificationsComponent </title>
<path fill="none" stroke="#000000" stroke-dasharray="5,2" d="M256,-187.1061C256,-187.1061 256,-205.991 256,-205.991"/>
<polygon fill="#000000" stroke="#000000" points="252.5001,-205.9909 256,-215.991 259.5001,-205.991 252.5001,-205.9909"/>
</g>
<!-- CommonModule -->
<g id="node5" class="node">
<title>CommonModule</title>
<polygon fill="#8dd3c7" stroke="#000000" points="135.6681,-122 132.6681,-126 111.6681,-126 108.6681,-122 24.3319,-122 24.3319,-86 135.6681,-86 135.6681,-122"/>
<text text-anchor="middle" x="80" y="-99.8" font-family="Times,serif" font-size="14.00" fill="#000000">CommonModule</text>
</g>
<!-- CommonModule&#45;&gt;SimpleNotificationsModule -->
<g id="edge4" class="edge">
<title>CommonModule&#45;&gt;SimpleNotificationsModule</title>
<path fill="none" stroke="#000000" d="M80,-122.1061C80,-141.3391 80,-169 80,-169 80,-169 159.8046,-169 159.8046,-169"/>
<polygon fill="#000000" stroke="#000000" points="159.8046,-172.5001 169.8046,-169 159.8045,-165.5001 159.8046,-172.5001"/>
</g>
</g>
</svg>
