<?xml version="1.0" encoding="UTF-8" standalone="no"?>
<!DOCTYPE svg PUBLIC "-//W3C//DTD SVG 1.1//EN"
 "http://www.w3.org/Graphics/SVG/1.1/DTD/svg11.dtd">
<!-- Generated by graphviz version 2.44.1 (20200629.0846)
 -->
<!-- Title: dependencies Pages: 1 -->
<svg width="638pt" height="284pt"
 viewBox="0.00 0.00 638.00 284.00" xmlns="http://www.w3.org/2000/svg" xmlns:xlink="http://www.w3.org/1999/xlink">
<g id="graph0" class="graph" transform="scale(1 1) rotate(0) translate(4 280)">
<title>dependencies</title>
<polygon fill="white" stroke="transparent" points="-4,4 -4,-280 634,-280 634,4 -4,4"/>
<text text-anchor="start" x="294.01" y="-42.4" font-family="sans-serif" font-weight="bold" font-size="14.00">Legend</text>
<polygon fill="#ffffb3" stroke="transparent" points="81,-10 81,-30 101,-30 101,-10 81,-10"/>
<text text-anchor="start" x="104.63" y="-15.4" font-family="sans-serif" font-size="14.00"> &#160;Declarations</text>
<polygon fill="#8dd3c7" stroke="transparent" points="194,-10 194,-30 214,-30 214,-10 194,-10"/>
<text text-anchor="start" x="217.73" y="-15.4" font-family="sans-serif" font-size="14.00"> &#160;Module</text>
<polygon fill="#80b1d3" stroke="transparent" points="280,-10 280,-30 300,-30 300,-10 280,-10"/>
<text text-anchor="start" x="303.78" y="-15.4" font-family="sans-serif" font-size="14.00"> &#160;Bootstrap</text>
<polygon fill="#fdb462" stroke="transparent" points="377,-10 377,-30 397,-30 397,-10 377,-10"/>
<text text-anchor="start" x="400.67" y="-15.4" font-family="sans-serif" font-size="14.00"> &#160;Providers</text>
<polygon fill="#fb8072" stroke="transparent" points="473,-10 473,-30 493,-30 493,-10 473,-10"/>
<text text-anchor="start" x="496.73" y="-15.4" font-family="sans-serif" font-size="14.00"> &#160;Exports</text>
<g id="clust1" class="cluster">
<title>cluster_SimpleNotificationsModule</title>
<polygon fill="none" stroke="black" stroke-dasharray="1,5" points="8,-70 8,-268 622,-268 622,-70 8,-70"/>
</g>
<g id="clust2" class="cluster">
<title>cluster_SimpleNotificationsModule_declarations</title>
<polygon fill="none" stroke="black" points="152,-78 152,-130 614,-130 614,-78 152,-78"/>
</g>
<g id="clust6" class="cluster">
<title>cluster_SimpleNotificationsModule_imports</title>
<polygon fill="none" stroke="black" points="16,-78 16,-130 144,-130 144,-78 16,-78"/>
</g>
<g id="clust7" class="cluster">
<title>cluster_SimpleNotificationsModule_exports</title>
<polygon fill="none" stroke="black" points="149,-208 149,-260 363,-260 363,-208 149,-208"/>
</g>
<!-- SimpleNotificationsComponent -->
<g id="node1" class="node">
<title>SimpleNotificationsComponent</title>
<polygon fill="#ffffb3" stroke="black" points="606.1,-122 411.9,-122 411.9,-86 606.1,-86 606.1,-122"/>
<text text-anchor="middle" x="509" y="-99.8" font-family="Times,serif" font-size="14.00">SimpleNotificationsComponent</text>
</g>
<!-- SimpleNotificationsModule -->
<g id="node4" class="node">
<title>SimpleNotificationsModule</title>
<polygon fill="#8dd3c7" stroke="black" points="342.31,-187 339.31,-191 318.31,-191 315.31,-187 169.69,-187 169.69,-151 342.31,-151 342.31,-187"/>
<text text-anchor="middle" x="256" y="-164.8" font-family="Times,serif" font-size="14.00">SimpleNotificationsModule</text>
</g>
<!-- SimpleNotificationsComponent&#45;&gt;SimpleNotificationsModule -->
<g id="edge1" class="edge">
<title>SimpleNotificationsComponent&#45;&gt;SimpleNotificationsModule</title>
<path fill="none" stroke="black" d="M509,-122.11C509,-141.34 509,-169 509,-169 509,-169 352.36,-169 352.36,-169"/>
<polygon fill="black" stroke="black" points="352.36,-165.5 342.36,-169 352.36,-172.5 352.36,-165.5"/>
</g>
<!-- NotificationComponent -->
<g id="node2" class="node">
<title>NotificationComponent</title>
<polygon fill="#ffffb3" stroke="black" points="393.48,-122 244.52,-122 244.52,-86 393.48,-86 393.48,-122"/>
<text text-anchor="middle" x="319" y="-99.8" font-family="Times,serif" font-size="14.00">NotificationComponent</text>
</g>
<!-- NotificationComponent&#45;&gt;SimpleNotificationsModule -->
<g id="edge2" class="edge">
<title>NotificationComponent&#45;&gt;SimpleNotificationsModule</title>
<path fill="none" stroke="black" d="M293.33,-122.11C293.33,-122.11 293.33,-140.99 293.33,-140.99"/>
<polygon fill="black" stroke="black" points="289.83,-140.99 293.33,-150.99 296.83,-140.99 289.83,-140.99"/>
</g>
<!-- MaxPipe -->
<g id="node3" class="node">
<title>MaxPipe</title>
<polygon fill="#ffffb3" stroke="black" points="226.05,-122 159.95,-122 159.95,-86 226.05,-86 226.05,-122"/>
<text text-anchor="middle" x="193" y="-99.8" font-family="Times,serif" font-size="14.00">MaxPipe</text>
</g>
<!-- MaxPipe&#45;&gt;SimpleNotificationsModule -->
<g id="edge3" class="edge">
<title>MaxPipe&#45;&gt;SimpleNotificationsModule</title>
<path fill="none" stroke="black" d="M198.06,-122.11C198.06,-122.11 198.06,-140.99 198.06,-140.99"/>
<polygon fill="black" stroke="black" points="194.56,-140.99 198.06,-150.99 201.56,-140.99 194.56,-140.99"/>
</g>
<!-- SimpleNotificationsComponent  -->
<g id="node6" class="node">
<title>SimpleNotificationsComponent </title>
<polygon fill="#fb8072" stroke="black" points="354.6,-252 157.4,-252 157.4,-216 354.6,-216 354.6,-252"/>
<text text-anchor="middle" x="256" y="-229.8" font-family="Times,serif" font-size="14.00">SimpleNotificationsComponent </text>
</g>
<!-- SimpleNotificationsModule&#45;&gt;SimpleNotificationsComponent  -->
<g id="edge5" class="edge">
<title>SimpleNotificationsModule&#45;&gt;SimpleNotificationsComponent </title>
<path fill="none" stroke="black" stroke-dasharray="5,2" d="M256,-187.11C256,-187.11 256,-205.99 256,-205.99"/>
<polygon fill="black" stroke="black" points="252.5,-205.99 256,-215.99 259.5,-205.99 252.5,-205.99"/>
</g>
<!-- CommonModule -->
<g id="node5" class="node">
<title>CommonModule</title>
<polygon fill="#8dd3c7" stroke="black" points="135.67,-122 132.67,-126 111.67,-126 108.67,-122 24.33,-122 24.33,-86 135.67,-86 135.67,-122"/>
<text text-anchor="middle" x="80" y="-99.8" font-family="Times,serif" font-size="14.00">CommonModule</text>
</g>
<!-- CommonModule&#45;&gt;SimpleNotificationsModule -->
<g id="edge4" class="edge">
<title>CommonModule&#45;&gt;SimpleNotificationsModule</title>
<path fill="none" stroke="black" d="M80,-122.11C80,-141.34 80,-169 80,-169 80,-169 159.8,-169 159.8,-169"/>
<polygon fill="black" stroke="black" points="159.8,-172.5 169.8,-169 159.8,-165.5 159.8,-172.5"/>
</g>
</g>
</svg>
