<?xml version="1.0" encoding="UTF-8" standalone="no"?>
<!DOCTYPE svg PUBLIC "-//W3C//DTD SVG 1.1//EN"
 "http://www.w3.org/Graphics/SVG/1.1/DTD/svg11.dtd">
<!-- Generated by graphviz version 2.40.1 (20161225.0304)
 -->
<!-- Title: dependencies Pages: 1 -->
<svg width="2256pt" height="284pt"
 viewBox="0.00 0.00 2256.00 284.00" xmlns="http://www.w3.org/2000/svg" xmlns:xlink="http://www.w3.org/1999/xlink">
<g id="graph0" class="graph" transform="scale(1 1) rotate(0) translate(4 280)">
<title>dependencies</title>
<polygon fill="#ffffff" stroke="transparent" points="-4,4 -4,-280 2252,-280 2252,4 -4,4"/>
<text text-anchor="start" x="1103.0091" y="-42.4" font-family="sans-serif" font-weight="bold" font-size="14.00" fill="#000000">Legend</text>
<polygon fill="#ffffb3" stroke="transparent" points="890,-10 890,-30 910,-30 910,-10 890,-10"/>
<text text-anchor="start" x="913.629" y="-15.4" font-family="sans-serif" font-size="14.00" fill="#000000"> &#160;Declarations</text>
<polygon fill="#8dd3c7" stroke="transparent" points="1003,-10 1003,-30 1023,-30 1023,-10 1003,-10"/>
<text text-anchor="start" x="1026.7251" y="-15.4" font-family="sans-serif" font-size="14.00" fill="#000000"> &#160;Module</text>
<polygon fill="#80b1d3" stroke="transparent" points="1089,-10 1089,-30 1109,-30 1109,-10 1089,-10"/>
<text text-anchor="start" x="1112.7812" y="-15.4" font-family="sans-serif" font-size="14.00" fill="#000000"> &#160;Bootstrap</text>
<polygon fill="#fdb462" stroke="transparent" points="1186,-10 1186,-30 1206,-30 1206,-10 1186,-10"/>
<text text-anchor="start" x="1209.6732" y="-15.4" font-family="sans-serif" font-size="14.00" fill="#000000"> &#160;Providers</text>
<polygon fill="#fb8072" stroke="transparent" points="1282,-10 1282,-30 1302,-30 1302,-10 1282,-10"/>
<text text-anchor="start" x="1305.7258" y="-15.4" font-family="sans-serif" font-size="14.00" fill="#000000"> &#160;Exports</text>
<g id="clust1" class="cluster">
<title>cluster_PlexModule</title>
<polygon fill="none" stroke="#000000" stroke-dasharray="1,5" points="8,-70 8,-268 2240,-268 2240,-70 8,-70"/>
</g>
<g id="clust2" class="cluster">
<title>cluster_PlexModule_declarations</title>
<polygon fill="none" stroke="#000000" points="1599,-78 1599,-130 2232,-130 2232,-78 1599,-78"/>
</g>
<g id="clust7" class="cluster">
<title>cluster_PlexModule_imports</title>
<polygon fill="none" stroke="#000000" points="16,-78 16,-130 1591,-130 1591,-78 16,-78"/>
</g>
<g id="clust8" class="cluster">
<title>cluster_PlexModule_exports</title>
<polygon fill="none" stroke="#000000" points="1045,-208 1045,-260 1260,-260 1260,-208 1045,-208"/>
</g>
<!-- ...MODULES -->
<g id="node1" class="node">
<title>...MODULES</title>
<polygon fill="#ffffb3" stroke="#000000" points="2224.1523,-122 2129.8477,-122 2129.8477,-86 2224.1523,-86 2224.1523,-122"/>
<text text-anchor="middle" x="2177" y="-99.8" font-family="Times,serif" font-size="14.00" fill="#000000">...MODULES</text>
</g>
<!-- PlexModule -->
<g id="node5" class="node">
<title>PlexModule</title>
<polygon fill="#8dd3c7" stroke="#000000" points="1191.4387,-187 1188.4387,-191 1167.4387,-191 1164.4387,-187 1106.5613,-187 1106.5613,-151 1191.4387,-151 1191.4387,-187"/>
<text text-anchor="middle" x="1149" y="-164.8" font-family="Times,serif" font-size="14.00" fill="#000000">PlexModule</text>
</g>
<!-- ...MODULES&#45;&gt;PlexModule -->
<g id="edge1" class="edge">
<title>...MODULES&#45;&gt;PlexModule</title>
<path fill="none" stroke="#000000" d="M2177,-122.3228C2177,-145.6602 2177,-183 2177,-183 2177,-183 1201.5387,-183 1201.5387,-183"/>
<polygon fill="#000000" stroke="#000000" points="1201.5387,-179.5001 1191.5387,-183 1201.5386,-186.5001 1201.5387,-179.5001"/>
</g>
<!-- ValidationMessagesComponent -->
<g id="node2" class="node">
<title>ValidationMessagesComponent</title>
<polygon fill="#ffffb3" stroke="#000000" points="2111.3529,-122 1916.6471,-122 1916.6471,-86 2111.3529,-86 2111.3529,-122"/>
<text text-anchor="middle" x="2014" y="-99.8" font-family="Times,serif" font-size="14.00" fill="#000000">ValidationMessagesComponent</text>
</g>
<!-- ValidationMessagesComponent&#45;&gt;PlexModule -->
<g id="edge2" class="edge">
<title>ValidationMessagesComponent&#45;&gt;PlexModule</title>
<path fill="none" stroke="#000000" d="M2014,-122.2921C2014,-144.2057 2014,-178 2014,-178 2014,-178 1201.3063,-178 1201.3063,-178"/>
<polygon fill="#000000" stroke="#000000" points="1201.3063,-174.5001 1191.3063,-178 1201.3063,-181.5001 1201.3063,-174.5001"/>
</g>
<!-- TooltipContentComponent -->
<g id="node3" class="node">
<title>TooltipContentComponent</title>
<polygon fill="#ffffb3" stroke="#000000" points="1898.3892,-122 1731.6108,-122 1731.6108,-86 1898.3892,-86 1898.3892,-122"/>
<text text-anchor="middle" x="1815" y="-99.8" font-family="Times,serif" font-size="14.00" fill="#000000">TooltipContentComponent</text>
</g>
<!-- TooltipContentComponent&#45;&gt;PlexModule -->
<g id="edge3" class="edge">
<title>TooltipContentComponent&#45;&gt;PlexModule</title>
<path fill="none" stroke="#000000" d="M1815,-122.0267C1815,-142.7672 1815,-174 1815,-174 1815,-174 1201.4202,-174 1201.4202,-174"/>
<polygon fill="#000000" stroke="#000000" points="1201.4202,-170.5001 1191.4202,-174 1201.4201,-177.5001 1201.4202,-170.5001"/>
</g>
<!-- HintComponent -->
<g id="node4" class="node">
<title>HintComponent</title>
<polygon fill="#ffffb3" stroke="#000000" points="1713.2204,-122 1606.7796,-122 1606.7796,-86 1713.2204,-86 1713.2204,-122"/>
<text text-anchor="middle" x="1660" y="-99.8" font-family="Times,serif" font-size="14.00" fill="#000000">HintComponent</text>
</g>
<!-- HintComponent&#45;&gt;PlexModule -->
<g id="edge4" class="edge">
<title>HintComponent&#45;&gt;PlexModule</title>
<path fill="none" stroke="#000000" d="M1660,-122.1061C1660,-141.3391 1660,-169 1660,-169 1660,-169 1201.252,-169 1201.252,-169"/>
<polygon fill="#000000" stroke="#000000" points="1201.2521,-165.5001 1191.252,-169 1201.252,-172.5001 1201.2521,-165.5001"/>
</g>
<!-- ...MODULES  -->
<g id="node17" class="node">
<title>...MODULES </title>
<polygon fill="#fb8072" stroke="#000000" points="1251.6528,-252 1154.3472,-252 1154.3472,-216 1251.6528,-216 1251.6528,-252"/>
<text text-anchor="middle" x="1203" y="-229.8" font-family="Times,serif" font-size="14.00" fill="#000000">...MODULES </text>
</g>
<!-- PlexModule&#45;&gt;...MODULES  -->
<g id="edge16" class="edge">
<title>PlexModule&#45;&gt;...MODULES </title>
<path fill="none" stroke="#000000" stroke-dasharray="5,2" d="M1172.6964,-187.1061C1172.6964,-187.1061 1172.6964,-205.991 1172.6964,-205.991"/>
<polygon fill="#000000" stroke="#000000" points="1169.1964,-205.9909 1172.6964,-215.991 1176.1964,-205.991 1169.1964,-205.9909"/>
</g>
<!-- MatTooltip  -->
<g id="node18" class="node">
<title>MatTooltip </title>
<polygon fill="#fb8072" stroke="#000000" points="1136.7747,-252 1053.2253,-252 1053.2253,-216 1136.7747,-216 1136.7747,-252"/>
<text text-anchor="middle" x="1095" y="-229.8" font-family="Times,serif" font-size="14.00" fill="#000000">MatTooltip </text>
</g>
<!-- PlexModule&#45;&gt;MatTooltip  -->
<g id="edge17" class="edge">
<title>PlexModule&#45;&gt;MatTooltip </title>
<path fill="none" stroke="#000000" stroke-dasharray="5,2" d="M1121.7092,-187.1061C1121.7092,-187.1061 1121.7092,-205.991 1121.7092,-205.991"/>
<polygon fill="#000000" stroke="#000000" points="1118.2092,-205.9909 1121.7092,-215.991 1125.2092,-205.991 1118.2092,-205.9909"/>
</g>
<!-- CommonModule -->
<g id="node6" class="node">
<title>CommonModule</title>
<polygon fill="#8dd3c7" stroke="#000000" points="1582.6681,-122 1579.6681,-126 1558.6681,-126 1555.6681,-122 1471.3319,-122 1471.3319,-86 1582.6681,-86 1582.6681,-122"/>
<text text-anchor="middle" x="1527" y="-99.8" font-family="Times,serif" font-size="14.00" fill="#000000">CommonModule</text>
</g>
<!-- CommonModule&#45;&gt;PlexModule -->
<g id="edge5" class="edge">
<title>CommonModule&#45;&gt;PlexModule</title>
<path fill="none" stroke="#000000" d="M1527,-122.302C1527,-140.2699 1527,-165 1527,-165 1527,-165 1201.2611,-165 1201.2611,-165"/>
<polygon fill="#000000" stroke="#000000" points="1201.2612,-161.5001 1191.2611,-165 1201.2611,-168.5001 1201.2612,-161.5001"/>
</g>
<!-- RouterModule -->
<g id="node7" class="node">
<title>RouterModule</title>
<polygon fill="#8dd3c7" stroke="#000000" points="1452.6528,-122 1449.6528,-126 1428.6528,-126 1425.6528,-122 1355.3472,-122 1355.3472,-86 1452.6528,-86 1452.6528,-122"/>
<text text-anchor="middle" x="1404" y="-99.8" font-family="Times,serif" font-size="14.00" fill="#000000">RouterModule</text>
</g>
<!-- RouterModule&#45;&gt;PlexModule -->
<g id="edge6" class="edge">
<title>RouterModule&#45;&gt;PlexModule</title>
<path fill="none" stroke="#000000" d="M1404,-122.027C1404,-138.3976 1404,-160 1404,-160 1404,-160 1201.3943,-160 1201.3943,-160"/>
<polygon fill="#000000" stroke="#000000" points="1201.3943,-156.5001 1191.3943,-160 1201.3943,-163.5001 1201.3943,-156.5001"/>
</g>
<!-- FormsModule -->
<g id="node8" class="node">
<title>FormsModule</title>
<polygon fill="#8dd3c7" stroke="#000000" points="1337.8288,-122 1334.8288,-126 1313.8288,-126 1310.8288,-122 1242.1712,-122 1242.1712,-86 1337.8288,-86 1337.8288,-122"/>
<text text-anchor="middle" x="1290" y="-99.8" font-family="Times,serif" font-size="14.00" fill="#000000">FormsModule</text>
</g>
<!-- FormsModule&#45;&gt;PlexModule -->
<g id="edge7" class="edge">
<title>FormsModule&#45;&gt;PlexModule</title>
<path fill="none" stroke="#000000" d="M1247.081,-122.1871C1247.081,-137.1824 1247.081,-156 1247.081,-156 1247.081,-156 1201.4493,-156 1201.4493,-156"/>
<polygon fill="#000000" stroke="#000000" points="1201.4493,-152.5001 1191.4493,-156 1201.4493,-159.5001 1201.4493,-152.5001"/>
</g>
<!-- MatSlideToggleModule -->
<g id="node9" class="node">
<title>MatSlideToggleModule</title>
<polygon fill="#8dd3c7" stroke="#000000" points="1224.0365,-122 1221.0365,-126 1200.0365,-126 1197.0365,-122 1073.9635,-122 1073.9635,-86 1224.0365,-86 1224.0365,-122"/>
<text text-anchor="middle" x="1149" y="-99.8" font-family="Times,serif" font-size="14.00" fill="#000000">MatSlideToggleModule</text>
</g>
<!-- MatSlideToggleModule&#45;&gt;PlexModule -->
<g id="edge8" class="edge">
<title>MatSlideToggleModule&#45;&gt;PlexModule</title>
<path fill="none" stroke="#000000" d="M1149,-122.1061C1149,-122.1061 1149,-140.991 1149,-140.991"/>
<polygon fill="#000000" stroke="#000000" points="1145.5001,-140.9909 1149,-150.991 1152.5001,-140.991 1145.5001,-140.9909"/>
</g>
<!-- MatCheckboxModule -->
<g id="node10" class="node">
<title>MatCheckboxModule</title>
<polygon fill="#8dd3c7" stroke="#000000" points="1055.3655,-122 1052.3655,-126 1031.3655,-126 1028.3655,-122 916.6345,-122 916.6345,-86 1055.3655,-86 1055.3655,-122"/>
<text text-anchor="middle" x="986" y="-99.8" font-family="Times,serif" font-size="14.00" fill="#000000">MatCheckboxModule</text>
</g>
<!-- MatCheckboxModule&#45;&gt;PlexModule -->
<g id="edge9" class="edge">
<title>MatCheckboxModule&#45;&gt;PlexModule</title>
<path fill="none" stroke="#000000" d="M984.9651,-122.1871C984.9651,-137.1824 984.9651,-156 984.9651,-156 984.9651,-156 1096.7569,-156 1096.7569,-156"/>
<polygon fill="#000000" stroke="#000000" points="1096.757,-159.5001 1106.7569,-156 1096.7569,-152.5001 1096.757,-159.5001"/>
</g>
<!-- MatRadioModule -->
<g id="node11" class="node">
<title>MatRadioModule</title>
<polygon fill="#8dd3c7" stroke="#000000" points="898.5423,-122 895.5423,-126 874.5423,-126 871.5423,-122 783.4577,-122 783.4577,-86 898.5423,-86 898.5423,-122"/>
<text text-anchor="middle" x="841" y="-99.8" font-family="Times,serif" font-size="14.00" fill="#000000">MatRadioModule</text>
</g>
<!-- MatRadioModule&#45;&gt;PlexModule -->
<g id="edge10" class="edge">
<title>MatRadioModule&#45;&gt;PlexModule</title>
<path fill="none" stroke="#000000" d="M841,-122.027C841,-138.3976 841,-160 841,-160 841,-160 1096.4973,-160 1096.4973,-160"/>
<polygon fill="#000000" stroke="#000000" points="1096.4973,-163.5001 1106.4973,-160 1096.4973,-156.5001 1096.4973,-163.5001"/>
</g>
<!-- MatTooltipModule -->
<g id="node12" class="node">
<title>MatTooltipModule</title>
<polygon fill="#8dd3c7" stroke="#000000" points="765.8244,-122 762.8244,-126 741.8244,-126 738.8244,-122 642.1756,-122 642.1756,-86 765.8244,-86 765.8244,-122"/>
<text text-anchor="middle" x="704" y="-99.8" font-family="Times,serif" font-size="14.00" fill="#000000">MatTooltipModule</text>
</g>
<!-- MatTooltipModule&#45;&gt;PlexModule -->
<g id="edge11" class="edge">
<title>MatTooltipModule&#45;&gt;PlexModule</title>
<path fill="none" stroke="#000000" d="M704,-122.302C704,-140.2699 704,-165 704,-165 704,-165 1096.7343,-165 1096.7343,-165"/>
<polygon fill="#000000" stroke="#000000" points="1096.7343,-168.5001 1106.7343,-165 1096.7343,-161.5001 1096.7343,-168.5001"/>
</g>
<!-- ChartsModule -->
<g id="node13" class="node">
<title>ChartsModule</title>
<polygon fill="#8dd3c7" stroke="#000000" points="624.0968,-122 621.0968,-126 600.0968,-126 597.0968,-122 527.9032,-122 527.9032,-86 624.0968,-86 624.0968,-122"/>
<text text-anchor="middle" x="576" y="-99.8" font-family="Times,serif" font-size="14.00" fill="#000000">ChartsModule</text>
</g>
<!-- ChartsModule&#45;&gt;PlexModule -->
<g id="edge12" class="edge">
<title>ChartsModule&#45;&gt;PlexModule</title>
<path fill="none" stroke="#000000" d="M576,-122.1061C576,-141.3391 576,-169 576,-169 576,-169 1096.4,-169 1096.4,-169"/>
<polygon fill="#000000" stroke="#000000" points="1096.4,-172.5001 1106.4,-169 1096.4,-165.5001 1096.4,-172.5001"/>
</g>
<!-- QuillModule -->
<g id="node14" class="node">
<title>QuillModule</title>
<polygon fill="#8dd3c7" stroke="#000000" points="510.3288,-122 507.3288,-126 486.3288,-126 483.3288,-122 421.6712,-122 421.6712,-86 510.3288,-86 510.3288,-122"/>
<text text-anchor="middle" x="466" y="-99.8" font-family="Times,serif" font-size="14.00" fill="#000000">QuillModule</text>
</g>
<!-- QuillModule&#45;&gt;PlexModule -->
<g id="edge13" class="edge">
<title>QuillModule&#45;&gt;PlexModule</title>
<path fill="none" stroke="#000000" d="M466,-122.0267C466,-142.7672 466,-174 466,-174 466,-174 1096.5333,-174 1096.5333,-174"/>
<polygon fill="#000000" stroke="#000000" points="1096.5334,-177.5001 1106.5333,-174 1096.5333,-170.5001 1096.5334,-177.5001"/>
</g>
<!-- InfiniteScrollModule -->
<g id="node15" class="node">
<title>InfiniteScrollModule</title>
<polygon fill="#8dd3c7" stroke="#000000" points="404.1965,-122 401.1965,-126 380.1965,-126 377.1965,-122 269.8035,-122 269.8035,-86 404.1965,-86 404.1965,-122"/>
<text text-anchor="middle" x="337" y="-99.8" font-family="Times,serif" font-size="14.00" fill="#000000">InfiniteScrollModule</text>
</g>
<!-- InfiniteScrollModule&#45;&gt;PlexModule -->
<g id="edge14" class="edge">
<title>InfiniteScrollModule&#45;&gt;PlexModule</title>
<path fill="none" stroke="#000000" d="M337,-122.2921C337,-144.2057 337,-178 337,-178 337,-178 1096.7703,-178 1096.7703,-178"/>
<polygon fill="#000000" stroke="#000000" points="1096.7704,-181.5001 1106.7703,-178 1096.7703,-174.5001 1096.7704,-181.5001"/>
</g>
<!-- SimpleNotificationsModule.forRoot() -->
<g id="node16" class="node">
<title>SimpleNotificationsModule.forRoot()</title>
<polygon fill="#8dd3c7" stroke="#000000" points="252.1826,-122 249.1826,-126 228.1826,-126 225.1826,-122 23.8174,-122 23.8174,-86 252.1826,-86 252.1826,-122"/>
<text text-anchor="middle" x="138" y="-99.8" font-family="Times,serif" font-size="14.00" fill="#000000">SimpleNotificationsModule.forRoot()</text>
</g>
<!-- SimpleNotificationsModule.forRoot()&#45;&gt;PlexModule -->
<g id="edge15" class="edge">
<title>SimpleNotificationsModule.forRoot()&#45;&gt;PlexModule</title>
<path fill="none" stroke="#000000" d="M138,-122.3228C138,-145.6602 138,-183 138,-183 138,-183 1096.5256,-183 1096.5256,-183"/>
<polygon fill="#000000" stroke="#000000" points="1096.5256,-186.5001 1106.5256,-183 1096.5255,-179.5001 1096.5256,-186.5001"/>
</g>
</g>
</svg>
