<?xml version="1.0" encoding="UTF-8" standalone="no"?>
<!DOCTYPE svg PUBLIC "-//W3C//DTD SVG 1.1//EN"
 "http://www.w3.org/Graphics/SVG/1.1/DTD/svg11.dtd">
<!-- Generated by graphviz version 2.40.1 (20161225.0304)
 -->
<!-- Title: dependencies Pages: 1 -->
<svg width="3000pt" height="284pt"
 viewBox="0.00 0.00 3000.00 284.00" xmlns="http://www.w3.org/2000/svg" xmlns:xlink="http://www.w3.org/1999/xlink">
<g id="graph0" class="graph" transform="scale(1 1) rotate(0) translate(4 280)">
<title>dependencies</title>
<polygon fill="#ffffff" stroke="transparent" points="-4,4 -4,-280 2996,-280 2996,4 -4,4"/>
<text text-anchor="start" x="1475.0091" y="-42.4" font-family="sans-serif" font-weight="bold" font-size="14.00" fill="#000000">Legend</text>
<polygon fill="#ffffb3" stroke="transparent" points="1262,-10 1262,-30 1282,-30 1282,-10 1262,-10"/>
<text text-anchor="start" x="1285.629" y="-15.4" font-family="sans-serif" font-size="14.00" fill="#000000"> &#160;Declarations</text>
<polygon fill="#8dd3c7" stroke="transparent" points="1375,-10 1375,-30 1395,-30 1395,-10 1375,-10"/>
<text text-anchor="start" x="1398.7251" y="-15.4" font-family="sans-serif" font-size="14.00" fill="#000000"> &#160;Module</text>
<polygon fill="#80b1d3" stroke="transparent" points="1461,-10 1461,-30 1481,-30 1481,-10 1461,-10"/>
<text text-anchor="start" x="1484.7812" y="-15.4" font-family="sans-serif" font-size="14.00" fill="#000000"> &#160;Bootstrap</text>
<polygon fill="#fdb462" stroke="transparent" points="1558,-10 1558,-30 1578,-30 1578,-10 1558,-10"/>
<text text-anchor="start" x="1581.6732" y="-15.4" font-family="sans-serif" font-size="14.00" fill="#000000"> &#160;Providers</text>
<polygon fill="#fb8072" stroke="transparent" points="1654,-10 1654,-30 1674,-30 1674,-10 1654,-10"/>
<text text-anchor="start" x="1677.7258" y="-15.4" font-family="sans-serif" font-size="14.00" fill="#000000"> &#160;Exports</text>
<g id="clust1" class="cluster">
<title>cluster_PlexModule</title>
<polygon fill="none" stroke="#000000" stroke-dasharray="1,5" points="8,-70 8,-268 2240,-268 2240,-70 8,-70"/>
</g>
<g id="clust2" class="cluster">
<title>cluster_PlexModule_declarations</title>
<polygon fill="none" stroke="#000000" points="16,-78 16,-130 649,-130 649,-78 16,-78"/>
</g>
<g id="clust7" class="cluster">
<title>cluster_PlexModule_imports</title>
<polygon fill="none" stroke="#000000" points="657,-78 657,-130 2232,-130 2232,-78 657,-78"/>
</g>
<g id="clust8" class="cluster">
<title>cluster_PlexModule_exports</title>
<polygon fill="none" stroke="#000000" points="1113,-208 1113,-260 1328,-260 1328,-208 1113,-208"/>
</g>
<g id="clust11" class="cluster">
<title>cluster_PushNotificationsModule</title>
<polygon fill="none" stroke="#000000" stroke-dasharray="1,5" points="2734,-70 2734,-195 2984,-195 2984,-70 2734,-70"/>
</g>
<g id="clust16" class="cluster">
<title>cluster_PushNotificationsModule_providers</title>
<polygon fill="none" stroke="#000000" points="2742,-78 2742,-130 2976,-130 2976,-78 2742,-78"/>
</g>
<g id="clust17" class="cluster">
<title>cluster_SimpleNotificationsModule</title>
<polygon fill="none" stroke="#000000" stroke-dasharray="1,5" points="2248,-70 2248,-268 2726,-268 2726,-70 2248,-70"/>
</g>
<g id="clust18" class="cluster">
<title>cluster_SimpleNotificationsModule_declarations</title>
<polygon fill="none" stroke="#000000" points="2256,-78 2256,-130 2718,-130 2718,-78 2256,-78"/>
</g>
<g id="clust23" class="cluster">
<title>cluster_SimpleNotificationsModule_exports</title>
<polygon fill="none" stroke="#000000" points="2286,-208 2286,-260 2500,-260 2500,-208 2286,-208"/>
</g>
<!-- ...MODULES -->
<g id="node1" class="node">
<title>...MODULES</title>
<polygon fill="#ffffb3" stroke="#000000" points="641.1523,-122 546.8477,-122 546.8477,-86 641.1523,-86 641.1523,-122"/>
<text text-anchor="middle" x="594" y="-99.8" font-family="Times,serif" font-size="14.00" fill="#000000">...MODULES</text>
</g>
<!-- PlexModule -->
<g id="node5" class="node">
<title>PlexModule</title>
<polygon fill="#8dd3c7" stroke="#000000" points="1259.4387,-187 1256.4387,-191 1235.4387,-191 1232.4387,-187 1174.5613,-187 1174.5613,-151 1259.4387,-151 1259.4387,-187"/>
<text text-anchor="middle" x="1217" y="-164.8" font-family="Times,serif" font-size="14.00" fill="#000000">PlexModule</text>
</g>
<!-- ...MODULES&#45;&gt;PlexModule -->
<g id="edge1" class="edge">
<title>...MODULES&#45;&gt;PlexModule</title>
<path fill="none" stroke="#000000" d="M594,-122.1061C594,-141.3391 594,-169 594,-169 594,-169 1164.6685,-169 1164.6685,-169"/>
<polygon fill="#000000" stroke="#000000" points="1164.6685,-172.5001 1174.6685,-169 1164.6684,-165.5001 1164.6685,-172.5001"/>
</g>
<!-- ValidationMessagesComponent -->
<g id="node2" class="node">
<title>ValidationMessagesComponent</title>
<polygon fill="#ffffb3" stroke="#000000" points="528.3529,-122 333.6471,-122 333.6471,-86 528.3529,-86 528.3529,-122"/>
<text text-anchor="middle" x="431" y="-99.8" font-family="Times,serif" font-size="14.00" fill="#000000">ValidationMessagesComponent</text>
</g>
<!-- ValidationMessagesComponent&#45;&gt;PlexModule -->
<g id="edge2" class="edge">
<title>ValidationMessagesComponent&#45;&gt;PlexModule</title>
<path fill="none" stroke="#000000" d="M431,-122.0267C431,-142.7672 431,-174 431,-174 431,-174 1164.7412,-174 1164.7412,-174"/>
<polygon fill="#000000" stroke="#000000" points="1164.7413,-177.5001 1174.7412,-174 1164.7412,-170.5001 1164.7413,-177.5001"/>
</g>
<!-- TooltipContentComponent -->
<g id="node3" class="node">
<title>TooltipContentComponent</title>
<polygon fill="#ffffb3" stroke="#000000" points="315.3892,-122 148.6108,-122 148.6108,-86 315.3892,-86 315.3892,-122"/>
<text text-anchor="middle" x="232" y="-99.8" font-family="Times,serif" font-size="14.00" fill="#000000">TooltipContentComponent</text>
</g>
<!-- TooltipContentComponent&#45;&gt;PlexModule -->
<g id="edge3" class="edge">
<title>TooltipContentComponent&#45;&gt;PlexModule</title>
<path fill="none" stroke="#000000" d="M232,-122.2921C232,-144.2057 232,-178 232,-178 232,-178 1164.6758,-178 1164.6758,-178"/>
<polygon fill="#000000" stroke="#000000" points="1164.6758,-181.5001 1174.6758,-178 1164.6757,-174.5001 1164.6758,-181.5001"/>
</g>
<!-- HintComponent -->
<g id="node4" class="node">
<title>HintComponent</title>
<polygon fill="#ffffb3" stroke="#000000" points="130.2204,-122 23.7796,-122 23.7796,-86 130.2204,-86 130.2204,-122"/>
<text text-anchor="middle" x="77" y="-99.8" font-family="Times,serif" font-size="14.00" fill="#000000">HintComponent</text>
</g>
<!-- HintComponent&#45;&gt;PlexModule -->
<g id="edge4" class="edge">
<title>HintComponent&#45;&gt;PlexModule</title>
<path fill="none" stroke="#000000" d="M77,-122.3228C77,-145.6602 77,-183 77,-183 77,-183 1164.7336,-183 1164.7336,-183"/>
<polygon fill="#000000" stroke="#000000" points="1164.7337,-186.5001 1174.7336,-183 1164.7336,-179.5001 1164.7337,-186.5001"/>
</g>
<!-- ...MODULES  -->
<g id="node17" class="node">
<title>...MODULES </title>
<polygon fill="#fb8072" stroke="#000000" points="1319.6528,-252 1222.3472,-252 1222.3472,-216 1319.6528,-216 1319.6528,-252"/>
<text text-anchor="middle" x="1271" y="-229.8" font-family="Times,serif" font-size="14.00" fill="#000000">...MODULES </text>
</g>
<!-- PlexModule&#45;&gt;...MODULES  -->
<g id="edge16" class="edge">
<title>PlexModule&#45;&gt;...MODULES </title>
<path fill="none" stroke="#000000" stroke-dasharray="5,2" d="M1240.6964,-187.1061C1240.6964,-187.1061 1240.6964,-205.991 1240.6964,-205.991"/>
<polygon fill="#000000" stroke="#000000" points="1237.1964,-205.9909 1240.6964,-215.991 1244.1964,-205.991 1237.1964,-205.9909"/>
</g>
<!-- MatTooltip  -->
<g id="node18" class="node">
<title>MatTooltip </title>
<polygon fill="#fb8072" stroke="#000000" points="1204.7747,-252 1121.2253,-252 1121.2253,-216 1204.7747,-216 1204.7747,-252"/>
<text text-anchor="middle" x="1163" y="-229.8" font-family="Times,serif" font-size="14.00" fill="#000000">MatTooltip </text>
</g>
<!-- PlexModule&#45;&gt;MatTooltip  -->
<g id="edge17" class="edge">
<title>PlexModule&#45;&gt;MatTooltip </title>
<path fill="none" stroke="#000000" stroke-dasharray="5,2" d="M1189.7092,-187.1061C1189.7092,-187.1061 1189.7092,-205.991 1189.7092,-205.991"/>
<polygon fill="#000000" stroke="#000000" points="1186.2092,-205.9909 1189.7092,-215.991 1193.2092,-205.991 1186.2092,-205.9909"/>
</g>
<!-- CommonModule -->
<g id="node6" class="node">
<title>CommonModule</title>
<polygon fill="#8dd3c7" stroke="#000000" points="2223.6681,-122 2220.6681,-126 2199.6681,-126 2196.6681,-122 2112.3319,-122 2112.3319,-86 2223.6681,-86 2223.6681,-122"/>
<text text-anchor="middle" x="2168" y="-99.8" font-family="Times,serif" font-size="14.00" fill="#000000">CommonModule</text>
</g>
<!-- CommonModule&#45;&gt;PlexModule -->
<g id="edge5" class="edge">
<title>CommonModule&#45;&gt;PlexModule</title>
<path fill="none" stroke="#000000" d="M2149.3887,-122.3228C2149.3887,-145.6602 2149.3887,-183 2149.3887,-183 2149.3887,-183 1269.4856,-183 1269.4856,-183"/>
<polygon fill="#000000" stroke="#000000" points="1269.4857,-179.5001 1259.4856,-183 1269.4856,-186.5001 1269.4857,-179.5001"/>
</g>
<!-- SimpleNotificationsModule -->
<g id="node24" class="node">
<title>SimpleNotificationsModule</title>
<polygon fill="#8dd3c7" stroke="#000000" points="2479.3131,-187 2476.3131,-191 2455.3131,-191 2452.3131,-187 2306.6869,-187 2306.6869,-151 2479.3131,-151 2479.3131,-187"/>
<text text-anchor="middle" x="2393" y="-164.8" font-family="Times,serif" font-size="14.00" fill="#000000">SimpleNotificationsModule</text>
</g>
<!-- CommonModule&#45;&gt;SimpleNotificationsModule -->
<g id="edge22" class="edge">
<title>CommonModule&#45;&gt;SimpleNotificationsModule</title>
<path fill="none" stroke="#000000" d="M2186.6113,-122.1243C2186.6113,-136.7832 2186.6113,-155 2186.6113,-155 2186.6113,-155 2296.6684,-155 2296.6684,-155"/>
<polygon fill="#000000" stroke="#000000" points="2296.6685,-158.5001 2306.6684,-155 2296.6684,-151.5001 2296.6685,-158.5001"/>
</g>
<!-- RouterModule -->
<g id="node7" class="node">
<title>RouterModule</title>
<polygon fill="#8dd3c7" stroke="#000000" points="2093.6528,-122 2090.6528,-126 2069.6528,-126 2066.6528,-122 1996.3472,-122 1996.3472,-86 2093.6528,-86 2093.6528,-122"/>
<text text-anchor="middle" x="2045" y="-99.8" font-family="Times,serif" font-size="14.00" fill="#000000">RouterModule</text>
</g>
<!-- RouterModule&#45;&gt;PlexModule -->
<g id="edge6" class="edge">
<title>RouterModule&#45;&gt;PlexModule</title>
<path fill="none" stroke="#000000" d="M2045,-122.1554C2045,-144.3519 2045,-179 2045,-179 2045,-179 1269.4857,-179 1269.4857,-179"/>
<polygon fill="#000000" stroke="#000000" points="1269.4858,-175.5001 1259.4857,-179 1269.4857,-182.5001 1269.4858,-175.5001"/>
</g>
<!-- FormsModule -->
<g id="node8" class="node">
<title>FormsModule</title>
<polygon fill="#8dd3c7" stroke="#000000" points="1978.8288,-122 1975.8288,-126 1954.8288,-126 1951.8288,-122 1883.1712,-122 1883.1712,-86 1978.8288,-86 1978.8288,-122"/>
<text text-anchor="middle" x="1931" y="-99.8" font-family="Times,serif" font-size="14.00" fill="#000000">FormsModule</text>
</g>
<!-- FormsModule&#45;&gt;PlexModule -->
<g id="edge7" class="edge">
<title>FormsModule&#45;&gt;PlexModule</title>
<path fill="none" stroke="#000000" d="M1931,-122.2843C1931,-143.3211 1931,-175 1931,-175 1931,-175 1269.2617,-175 1269.2617,-175"/>
<polygon fill="#000000" stroke="#000000" points="1269.2617,-171.5001 1259.2617,-175 1269.2616,-178.5001 1269.2617,-171.5001"/>
</g>
<!-- MatSlideToggleModule -->
<g id="node9" class="node">
<title>MatSlideToggleModule</title>
<polygon fill="#8dd3c7" stroke="#000000" points="1865.0365,-122 1862.0365,-126 1841.0365,-126 1838.0365,-122 1714.9635,-122 1714.9635,-86 1865.0365,-86 1865.0365,-122"/>
<text text-anchor="middle" x="1790" y="-99.8" font-family="Times,serif" font-size="14.00" fill="#000000">MatSlideToggleModule</text>
</g>
<!-- MatSlideToggleModule&#45;&gt;PlexModule -->
<g id="edge8" class="edge">
<title>MatSlideToggleModule&#45;&gt;PlexModule</title>
<path fill="none" stroke="#000000" d="M1790,-122.308C1790,-142.1455 1790,-171 1790,-171 1790,-171 1269.6,-171 1269.6,-171"/>
<polygon fill="#000000" stroke="#000000" points="1269.6,-167.5001 1259.6,-171 1269.6,-174.5001 1269.6,-167.5001"/>
</g>
<!-- MatCheckboxModule -->
<g id="node10" class="node">
<title>MatCheckboxModule</title>
<polygon fill="#8dd3c7" stroke="#000000" points="1696.3655,-122 1693.3655,-126 1672.3655,-126 1669.3655,-122 1557.6345,-122 1557.6345,-86 1696.3655,-86 1696.3655,-122"/>
<text text-anchor="middle" x="1627" y="-99.8" font-family="Times,serif" font-size="14.00" fill="#000000">MatCheckboxModule</text>
</g>
<!-- MatCheckboxModule&#45;&gt;PlexModule -->
<g id="edge9" class="edge">
<title>MatCheckboxModule&#45;&gt;PlexModule</title>
<path fill="none" stroke="#000000" d="M1627,-122.2222C1627,-140.8285 1627,-167 1627,-167 1627,-167 1269.333,-167 1269.333,-167"/>
<polygon fill="#000000" stroke="#000000" points="1269.333,-163.5001 1259.333,-167 1269.3329,-170.5001 1269.333,-163.5001"/>
</g>
<!-- MatRadioModule -->
<g id="node11" class="node">
<title>MatRadioModule</title>
<polygon fill="#8dd3c7" stroke="#000000" points="1539.5423,-122 1536.5423,-126 1515.5423,-126 1512.5423,-122 1424.4577,-122 1424.4577,-86 1539.5423,-86 1539.5423,-122"/>
<text text-anchor="middle" x="1482" y="-99.8" font-family="Times,serif" font-size="14.00" fill="#000000">MatRadioModule</text>
</g>
<!-- MatRadioModule&#45;&gt;PlexModule -->
<g id="edge10" class="edge">
<title>MatRadioModule&#45;&gt;PlexModule</title>
<path fill="none" stroke="#000000" d="M1482,-122.0225C1482,-139.3734 1482,-163 1482,-163 1482,-163 1269.2831,-163 1269.2831,-163"/>
<polygon fill="#000000" stroke="#000000" points="1269.2831,-159.5001 1259.2831,-163 1269.283,-166.5001 1269.2831,-159.5001"/>
</g>
<!-- MatTooltipModule -->
<g id="node12" class="node">
<title>MatTooltipModule</title>
<polygon fill="#8dd3c7" stroke="#000000" points="1406.8244,-122 1403.8244,-126 1382.8244,-126 1379.8244,-122 1283.1756,-122 1283.1756,-86 1406.8244,-86 1406.8244,-122"/>
<text text-anchor="middle" x="1345" y="-99.8" font-family="Times,serif" font-size="14.00" fill="#000000">MatTooltipModule</text>
</g>
<!-- MatTooltipModule&#45;&gt;PlexModule -->
<g id="edge11" class="edge">
<title>MatTooltipModule&#45;&gt;PlexModule</title>
<path fill="none" stroke="#000000" d="M1301.5821,-122.0091C1301.5821,-138.0494 1301.5821,-159 1301.5821,-159 1301.5821,-159 1269.291,-159 1269.291,-159"/>
<polygon fill="#000000" stroke="#000000" points="1269.2911,-155.5001 1259.291,-159 1269.291,-162.5001 1269.2911,-155.5001"/>
</g>
<!-- ChartsModule -->
<g id="node13" class="node">
<title>ChartsModule</title>
<polygon fill="#8dd3c7" stroke="#000000" points="1265.0968,-122 1262.0968,-126 1241.0968,-126 1238.0968,-122 1168.9032,-122 1168.9032,-86 1265.0968,-86 1265.0968,-122"/>
<text text-anchor="middle" x="1217" y="-99.8" font-family="Times,serif" font-size="14.00" fill="#000000">ChartsModule</text>
</g>
<!-- ChartsModule&#45;&gt;PlexModule -->
<g id="edge12" class="edge">
<title>ChartsModule&#45;&gt;PlexModule</title>
<path fill="none" stroke="#000000" d="M1217,-122.1061C1217,-122.1061 1217,-140.991 1217,-140.991"/>
<polygon fill="#000000" stroke="#000000" points="1213.5001,-140.9909 1217,-150.991 1220.5001,-140.991 1213.5001,-140.9909"/>
</g>
<!-- QuillModule -->
<g id="node14" class="node">
<title>QuillModule</title>
<polygon fill="#8dd3c7" stroke="#000000" points="1151.3288,-122 1148.3288,-126 1127.3288,-126 1124.3288,-122 1062.6712,-122 1062.6712,-86 1151.3288,-86 1151.3288,-122"/>
<text text-anchor="middle" x="1107" y="-99.8" font-family="Times,serif" font-size="14.00" fill="#000000">QuillModule</text>
</g>
<!-- QuillModule&#45;&gt;PlexModule -->
<g id="edge13" class="edge">
<title>QuillModule&#45;&gt;PlexModule</title>
<path fill="none" stroke="#000000" d="M1136.2635,-122.1871C1136.2635,-137.1824 1136.2635,-156 1136.2635,-156 1136.2635,-156 1164.7401,-156 1164.7401,-156"/>
<polygon fill="#000000" stroke="#000000" points="1164.7401,-159.5001 1174.7401,-156 1164.7401,-152.5001 1164.7401,-159.5001"/>
</g>
<!-- InfiniteScrollModule -->
<g id="node15" class="node">
<title>InfiniteScrollModule</title>
<polygon fill="#8dd3c7" stroke="#000000" points="1045.1965,-122 1042.1965,-126 1021.1965,-126 1018.1965,-122 910.8035,-122 910.8035,-86 1045.1965,-86 1045.1965,-122"/>
<text text-anchor="middle" x="978" y="-99.8" font-family="Times,serif" font-size="14.00" fill="#000000">InfiniteScrollModule</text>
</g>
<!-- InfiniteScrollModule&#45;&gt;PlexModule -->
<g id="edge14" class="edge">
<title>InfiniteScrollModule&#45;&gt;PlexModule</title>
<path fill="none" stroke="#000000" d="M978,-122.027C978,-138.3976 978,-160 978,-160 978,-160 1164.547,-160 1164.547,-160"/>
<polygon fill="#000000" stroke="#000000" points="1164.547,-163.5001 1174.547,-160 1164.547,-156.5001 1164.547,-163.5001"/>
</g>
<!-- SimpleNotificationsModule.forRoot() -->
<g id="node16" class="node">
<title>SimpleNotificationsModule.forRoot()</title>
<polygon fill="#8dd3c7" stroke="#000000" points="893.1826,-122 890.1826,-126 869.1826,-126 866.1826,-122 664.8174,-122 664.8174,-86 893.1826,-86 893.1826,-122"/>
<text text-anchor="middle" x="779" y="-99.8" font-family="Times,serif" font-size="14.00" fill="#000000">SimpleNotificationsModule.forRoot()</text>
</g>
<!-- SimpleNotificationsModule.forRoot()&#45;&gt;PlexModule -->
<g id="edge15" class="edge">
<title>SimpleNotificationsModule.forRoot()&#45;&gt;PlexModule</title>
<path fill="none" stroke="#000000" d="M779,-122.302C779,-140.2699 779,-165 779,-165 779,-165 1164.6047,-165 1164.6047,-165"/>
<polygon fill="#000000" stroke="#000000" points="1164.6048,-168.5001 1174.6047,-165 1164.6047,-161.5001 1164.6048,-168.5001"/>
</g>
<!-- PushNotificationsService -->
<g id="node19" class="node">
<title>PushNotificationsService</title>
<ellipse fill="#fdb462" stroke="#000000" cx="2859" cy="-104" rx="109.3836" ry="18"/>
<text text-anchor="middle" x="2859" y="-99.8" font-family="Times,serif" font-size="14.00" fill="#000000">PushNotificationsService</text>
</g>
<!-- PushNotificationsModule -->
<g id="node20" class="node">
<title>PushNotificationsModule</title>
<polygon fill="#8dd3c7" stroke="#000000" points="2938.8711,-187 2935.8711,-191 2914.8711,-191 2911.8711,-187 2779.1289,-187 2779.1289,-151 2938.8711,-151 2938.8711,-187"/>
<text text-anchor="middle" x="2859" y="-164.8" font-family="Times,serif" font-size="14.00" fill="#000000">PushNotificationsModule</text>
</g>
<!-- PushNotificationsService&#45;&gt;PushNotificationsModule -->
<g id="edge18" class="edge">
<title>PushNotificationsService&#45;&gt;PushNotificationsModule</title>
<path fill="none" stroke="#000000" d="M2859,-122.1061C2859,-122.1061 2859,-140.991 2859,-140.991"/>
<polygon fill="#000000" stroke="#000000" points="2855.5001,-140.9909 2859,-150.991 2862.5001,-140.991 2855.5001,-140.9909"/>
</g>
<!-- SimpleNotificationsComponent -->
<g id="node21" class="node">
<title>SimpleNotificationsComponent</title>
<polygon fill="#ffffb3" stroke="#000000" points="2710.0954,-122 2515.9046,-122 2515.9046,-86 2710.0954,-86 2710.0954,-122"/>
<text text-anchor="middle" x="2613" y="-99.8" font-family="Times,serif" font-size="14.00" fill="#000000">SimpleNotificationsComponent</text>
</g>
<!-- SimpleNotificationsComponent&#45;&gt;SimpleNotificationsModule -->
<g id="edge19" class="edge">
<title>SimpleNotificationsComponent&#45;&gt;SimpleNotificationsModule</title>
<path fill="none" stroke="#000000" d="M2613,-122.1061C2613,-141.3391 2613,-169 2613,-169 2613,-169 2489.3184,-169 2489.3184,-169"/>
<polygon fill="#000000" stroke="#000000" points="2489.3184,-165.5001 2479.3184,-169 2489.3184,-172.5001 2489.3184,-165.5001"/>
</g>
<!-- NotificationComponent -->
<g id="node22" class="node">
<title>NotificationComponent</title>
<polygon fill="#ffffb3" stroke="#000000" points="2497.4818,-122 2348.5182,-122 2348.5182,-86 2497.4818,-86 2497.4818,-122"/>
<text text-anchor="middle" x="2423" y="-99.8" font-family="Times,serif" font-size="14.00" fill="#000000">NotificationComponent</text>
</g>
<!-- NotificationComponent&#45;&gt;SimpleNotificationsModule -->
<g id="edge20" class="edge">
<title>NotificationComponent&#45;&gt;SimpleNotificationsModule</title>
<path fill="none" stroke="#000000" d="M2413.8328,-122.1061C2413.8328,-122.1061 2413.8328,-140.991 2413.8328,-140.991"/>
<polygon fill="#000000" stroke="#000000" points="2410.3328,-140.9909 2413.8328,-150.991 2417.3328,-140.991 2410.3328,-140.9909"/>
</g>
<!-- MaxPipe -->
<g id="node23" class="node">
<title>MaxPipe</title>
<polygon fill="#ffffb3" stroke="#000000" points="2330.0485,-122 2263.9515,-122 2263.9515,-86 2330.0485,-86 2330.0485,-122"/>
<text text-anchor="middle" x="2297" y="-99.8" font-family="Times,serif" font-size="14.00" fill="#000000">MaxPipe</text>
</g>
<!-- MaxPipe&#45;&gt;SimpleNotificationsModule -->
<g id="edge21" class="edge">
<title>MaxPipe&#45;&gt;SimpleNotificationsModule</title>
<path fill="none" stroke="#000000" d="M2318.5585,-122.1061C2318.5585,-122.1061 2318.5585,-140.991 2318.5585,-140.991"/>
<polygon fill="#000000" stroke="#000000" points="2315.0586,-140.9909 2318.5585,-150.991 2322.0586,-140.991 2315.0586,-140.9909"/>
</g>
<!-- SimpleNotificationsComponent  -->
<g id="node25" class="node">
<title>SimpleNotificationsComponent </title>
<polygon fill="#fb8072" stroke="#000000" points="2491.5958,-252 2294.4042,-252 2294.4042,-216 2491.5958,-216 2491.5958,-252"/>
<text text-anchor="middle" x="2393" y="-229.8" font-family="Times,serif" font-size="14.00" fill="#000000">SimpleNotificationsComponent </text>
</g>
<!-- SimpleNotificationsModule&#45;&gt;SimpleNotificationsComponent  -->
<g id="edge23" class="edge">
<title>SimpleNotificationsModule&#45;&gt;SimpleNotificationsComponent </title>
<path fill="none" stroke="#000000" stroke-dasharray="5,2" d="M2393,-187.1061C2393,-187.1061 2393,-205.991 2393,-205.991"/>
<polygon fill="#000000" stroke="#000000" points="2389.5001,-205.9909 2393,-215.991 2396.5001,-205.991 2389.5001,-205.9909"/>
</g>
</g>
</svg>
