<?xml version="1.0" encoding="UTF-8" standalone="no"?>
<!DOCTYPE svg PUBLIC "-//W3C//DTD SVG 1.1//EN"
 "http://www.w3.org/Graphics/SVG/1.1/DTD/svg11.dtd">
<!-- Generated by graphviz version 2.47.3 (20210619.1520)
 -->
<!-- Title: dependencies Pages: 1 -->
<svg width="274pt" height="174pt"
 viewBox="0.00 0.00 274.00 173.80" xmlns="http://www.w3.org/2000/svg" xmlns:xlink="http://www.w3.org/1999/xlink">
<g id="graph0" class="graph" transform="scale(1 1) rotate(0) translate(4 169.8)">
<title>dependencies</title>
<polygon fill="white" stroke="transparent" points="-4,4 -4,-169.8 270,-169.8 270,4 -4,4"/>
<text text-anchor="middle" x="133" y="-8.2" font-family="sans-serif" font-size="14.00">dependencies</text>
<g id="clust1" class="cluster">
<title>cluster_PushNotificationsModule</title>
<polygon fill="none" stroke="black" stroke-dasharray="1,5" points="8,-32.8 8,-157.8 258,-157.8 258,-32.8 8,-32.8"/>
</g>
<g id="clust6" class="cluster">
<title>cluster_PushNotificationsModule_providers</title>
<polygon fill="none" stroke="black" points="16,-40.8 16,-92.8 250,-92.8 250,-40.8 16,-40.8"/>
</g>
<!-- PushNotificationsService -->
<g id="node1" class="node">
<title>PushNotificationsService</title>
<ellipse fill="#fdb462" stroke="black" cx="133" cy="-66.8" rx="109.38" ry="18"/>
<text text-anchor="middle" x="133" y="-62.6" font-family="Times,serif" font-size="14.00">PushNotificationsService</text>
</g>
<!-- PushNotificationsModule -->
<g id="node2" class="node">
<title>PushNotificationsModule</title>
<polygon fill="#8dd3c7" stroke="black" points="212.87,-149.8 209.87,-153.8 188.87,-153.8 185.87,-149.8 53.13,-149.8 53.13,-113.8 212.87,-113.8 212.87,-149.8"/>
<text text-anchor="middle" x="133" y="-127.6" font-family="Times,serif" font-size="14.00">PushNotificationsModule</text>
</g>
<!-- PushNotificationsService&#45;&gt;PushNotificationsModule -->
<g id="edge1" class="edge">
<title>PushNotificationsService&#45;&gt;PushNotificationsModule</title>
<path fill="none" stroke="black" d="M133,-84.91C133,-84.91 133,-103.79 133,-103.79"/>
<polygon fill="black" stroke="black" points="129.5,-103.79 133,-113.79 136.5,-103.79 129.5,-103.79"/>
</g>
</g>
</svg>
